<svg width="724.62880859375px" height="137.61874999999998px" xmlns="http://www.w3.org/2000/svg" viewBox="-112.31440429687501 6.190625000000011 724.62880859375 137.61874999999998" style="background: none;" preserveAspectRatio="xMidYMid"><defs><linearGradient id="editing-shiny-gradient" x1="0.04322727117869957" x2="0.9567727288213004" y1="0.2966316784620999" y2="0.7033683215379001" gradientUnits="objectBoundingBox"><stop offset="0.0" stop-color="#f10b64"></stop><stop offset="0.5" stop-color="#02e8fb"></stop><stop offset="1.0" stop-color="#5a1a80"></stop></linearGradient><linearGradient id="editing-shiny-gradient2" x1="0" x2="0" y1="0" y2="1"><stop offset="0.2" stop-color="#fff" stop-opacity="0.8"></stop><stop offset="0.8" stop-color="#fff" stop-opacity="0"></stop></linearGradient><filter id="editing-shiny2" x="-100%" y="-100%" width="300%" height="300%"><feMorphology operator="erode" radius="2"></feMorphology></filter><filter id="editing-shiny" x="-100%" y="-100%" width="300%" height="300%"><feFlood flood-color="#fff" result="flood"></feFlood><feConvolveMatrix in="SourceGraphic" result="conv" order="8,8" divisor="1" kernelMatrix="0 0 0 0 0 0 0 0 0 0 0 1 1 0 0 0 0 0 0 1 1 0 0 0 0 0 1 0 0 1 0 0 0 0 1 0 0 1 0 0 0 1 0 0 0 0 1 0 0 1 1 0 0 1 1 0 0 0 0 1 1 0 0 0 "></feConvolveMatrix><feOffset dx="0" dy="4" in="conv" result="offset"></feOffset><feComposite operator="in" in="flood" in2="offset" result="comp"></feComposite><feGaussianBlur in="offset" stdDeviation="3" result="shadow"></feGaussianBlur><feColorMatrix in="shadow" type="matrix" values="0.7 0 0 0 0  0 0.7 0 0 0  0 0 0.7 0 0  0 0 0 0.3 0" result="dark-shadow"></feColorMatrix><feOffset dx="0" dy="4" in="dark-shadow" result="offset-shadow"></feOffset><feOffset dx="0" dy="2" in="conv" result="offset-2"></feOffset><feComposite operator="out" in="offset" in2="offset-2" result="edge-diff"></feComposite><feGaussianBlur in="edge-diff" stdDeviation="1" result="edge-blur"></feGaussianBlur><feColorMatrix in="edge-blur" result="edge-shadow" type="matrix" values="0 0 0 0 0  0 0 0 0 0  0 0 0 0 0  0 0 0 0.5 0"></feColorMatrix><feComposite operator="in" in="edge-shadow" in2="offset" result="edge-shadow-in"></feComposite><feOffset dx="0" dy="1" in="edge-shadow-in" result="edge-shadow-final"></feOffset><feMerge result="out"><feMergeNode in="offset-shadow"></feMergeNode><feMergeNode in="comp"></feMergeNode><feMergeNode in="edge-shadow-final"></feMergeNode><feMergeNode in="SourceGraphic"></feMergeNode></feMerge></filter></defs><g filter="url(#editing-shiny)"><g transform="translate(0.07779550552368164, 107.80093765258789)"><path d="M-5.70-35.20L-6.40-35.46L-6.40-35.46Q-4.54-40.90-0.19-42.94L-0.19-42.94L-0.19-42.94Q4.16-44.99 15.23-44.99L15.23-44.99L15.23-44.99Q17.54-44.99 26.88-44.80L26.88-44.80L26.88-44.80Q33.66-44.61 38.85-41.86L38.85-41.86L38.85-41.86Q44.03-39.10 46.94-34.08L46.94-34.08L46.94-34.08Q49.86-29.06 49.86-22.40L49.86-22.40L49.86-22.40Q49.86-12.35 43.49-6.18L43.49-6.18L43.49-6.18Q37.12 0 26.88 0L26.88 0L5.18 0L5.25-0.64L6.02-0.64L6.02-0.64Q7.62-0.64 8.77-1.70L8.77-1.70L8.77-1.70Q9.92-2.75 10.11-4.29L10.11-4.29L10.11-42.88L10.11-42.88Q2.11-42.69-1.22-40.38L-1.22-40.38L-1.22-40.38Q-2.94-39.17-3.84-38.05L-3.84-38.05L-3.84-38.05Q-4.74-36.93-5.70-35.20L-5.70-35.20ZM26.88-42.88L14.27-42.88L14.27-1.92L26.88-1.92L26.88-1.92Q35.01-1.92 40.03-7.55L40.03-7.55L40.03-7.55Q45.06-13.18 45.06-22.40L45.06-22.40L45.06-22.40Q45.06-28.48 42.78-33.12L42.78-33.12L42.78-33.12Q40.51-37.76 36.38-40.32L36.38-40.32L36.38-40.32Q32.26-42.88 26.88-42.88L26.88-42.88ZM113.02 10.24L113.02 10.88L113.02 10.88Q110.34 11.58 108.26 11.58L108.26 11.58L108.26 11.58Q106.18 11.58 104.58 11.33L104.58 11.33L104.58 11.33Q102.98 11.07 101.15 10.34L101.15 10.34L101.15 10.34Q99.33 9.60 97.73 8.64L97.73 8.64L97.73 8.64Q96.13 7.68 94.53 6.27L94.53 6.27L94.53 6.27Q91.58 3.90 89.18 1.15L89.18 1.15L89.18 1.15Q86.78-1.60 79.94-9.18L79.94-9.18L79.94-9.18Q73.09-16.77 70.85-19.26L70.85-19.26L70.85-19.26Q68.61-21.76 67.39-21.89L67.39-21.89L67.39-22.53L67.39-22.53Q71.10-22.53 72.35-22.69L72.35-22.69L72.35-22.69Q73.60-22.85 75.01-23.26L75.01-23.26L75.01-23.26Q76.42-23.68 77.38-24.38L77.38-24.38L77.38-24.38Q81.15-26.82 81.15-32.45L81.15-32.45L81.15-32.45Q81.15-37.12 79.07-39.94L79.07-39.94L79.07-39.94Q76.99-42.75 73.22-42.82L73.22-42.82L65.28-42.82L65.28-4.67L65.28-4.67Q65.28-3.07 66.46-1.86L66.46-1.86L66.46-1.86Q67.65-0.64 69.38-0.64L69.38-0.64L70.14-0.64L70.21 0L56.19 0L56.19-0.64L57.02-0.64L57.02-0.64Q58.62-0.64 59.84-1.79L59.84-1.79L59.84-1.79Q61.06-2.94 61.12-4.61L61.12-4.61L61.12-40.13L61.12-40.13Q61.06-41.79 59.87-42.98L59.87-42.98L59.87-42.98Q58.69-44.16 57.02-44.16L57.02-44.16L56.19-44.16L56.19-44.80L73.47-44.80L73.47-44.80Q79.10-44.80 82.53-41.63L82.53-41.63L82.53-41.63Q85.95-38.46 85.95-33.25L85.95-33.25L85.95-33.25Q85.95-28.03 82.82-24.29L82.82-24.29L82.82-24.29Q79.68-20.54 75.14-20.54L75.14-20.54L75.14-20.54Q75.14-20.54 75.07-20.54L75.07-20.54L75.07-20.54Q77.25-18.24 80-15.17L80-15.17L80-15.17Q91.07-2.94 94.21 0.19L94.21 0.19L94.21 0.19Q97.34 3.33 99.74 5.34L99.74 5.34L99.74 5.34Q102.14 7.36 104 8.32L104 8.32L104 8.32Q107.78 10.37 111.49 10.37L111.49 10.37L111.49 10.37Q112.26 10.37 113.02 10.24L113.02 10.24ZM139.84-0.64L139.84-0.64L140.35-0.64L140.35 0L125.95 0L125.95-0.64L126.53-0.64L126.53-0.64Q127.87-0.64 128.54-1.50L128.54-1.50L128.54-1.50Q129.22-2.37 129.22-3.14L129.22-3.14L129.22-3.14Q129.22-3.90 128.96-4.67L128.96-4.67L124.86-15.55L107.58-15.55L103.30-4.61L103.30-4.61Q103.04-3.84 103.04-3.10L103.04-3.10L103.04-3.10Q103.04-2.37 103.71-1.50L103.71-1.50L103.71-1.50Q104.38-0.64 105.73-0.64L105.73-0.64L106.30-0.64L106.30 0L93.44 0L93.44-0.64L94.02-0.64L94.02-0.64Q95.62-0.64 97.15-1.66L97.15-1.66L97.15-1.66Q98.69-2.69 99.65-4.67L99.65-4.67L114.11-39.10L114.11-39.10Q116.48-44.29 116.48-45.70L116.48-45.70L117.06-45.70L134.21-4.67L134.21-4.67Q135.10-2.69 136.64-1.66L136.64-1.66L136.64-1.66Q138.18-0.64 139.84-0.64ZM116.42-38.02L108.35-17.47L124.10-17.47L116.42-38.02ZM199.42 11.14L199.42 11.14L199.42 11.14Q191.30 11.14 186.11 5.95L186.11 5.95L186.11 5.95Q182.27 2.11 181.06-3.71L181.06-3.71L181.06-3.71Q174.98 0.90 166.14 0.90L166.14 0.90L166.14 0.90Q159.17 0.90 153.44-2.14L153.44-2.14L153.44-2.14Q147.71-5.18 144.48-10.50L144.48-10.50L144.48-10.50Q141.25-15.81 141.25-22.46L141.25-22.46L141.25-22.46Q141.25-29.12 144.48-34.46L144.48-34.46L144.48-34.46Q147.71-39.81 153.41-42.75L153.41-42.75L153.41-42.75Q159.10-45.70 166.14-45.70L166.14-45.70L166.14-45.70Q174.98-45.70 181.70-41.34L181.70-41.34L182.98-32.32L182.40-32.32L182.40-32.32Q180.48-39.74 173.70-42.43L173.70-42.43L173.70-42.43Q170.37-43.78 166.14-43.78L166.14-43.78L166.14-43.78Q157.50-43.78 151.78-37.76L151.78-37.76L151.78-37.76Q146.05-31.74 146.05-22.50L146.05-22.50L146.05-22.50Q146.05-13.25 151.81-7.17L151.81-7.17L151.81-7.17Q157.57-1.09 166.14-1.02L166.14-1.02L166.14-1.02Q170.30-1.02 174.08-2.50L174.08-2.50L174.08-2.50Q177.86-3.97 180.54-6.59L180.54-6.59L180.54-17.92L180.54-17.92Q180.54-19.33 179.71-20.06L179.71-20.06L179.71-20.06Q178.88-20.80 177.34-20.80L177.34-20.80L176.32-20.80L176.32-21.44L188.86-21.44L188.86-20.80L187.90-20.80L187.90-20.80Q186.30-20.80 185.47-20.06L185.47-20.06L185.47-20.06Q184.64-19.33 184.70-17.92L184.70-17.92L184.70-8.06L184.70-8.06Q185.09 2.05 191.30 6.40L191.30 6.40L191.30 6.40Q195.65 9.47 202.56 9.47L202.56 9.47L202.56 9.47Q205.44 9.47 208.83 8.90L208.83 8.90L208.90 9.54L208.90 9.54Q203.78 11.14 199.42 11.14ZM209.92-30.02L209.28-29.89L209.28-29.89Q209.02-30.72 209.02-31.33L209.02-31.33L209.02-31.33Q209.02-31.94 209.09-32.70L209.09-32.70L209.09-32.70Q209.15-33.47 209.38-34.82L209.38-34.82L209.38-34.82Q209.60-36.16 210.24-37.47L210.24-37.47L210.24-37.47Q210.88-38.78 211.71-40L211.71-40L211.71-40Q212.54-41.22 213.86-42.24L213.86-42.24L213.86-42.24Q215.17-43.26 216.77-44.03L216.77-44.03L216.77-44.03Q220.16-45.70 225.02-45.70L225.02-45.70L225.02-45.70Q234.82-45.70 240.99-39.20L240.99-39.20L240.99-39.20Q247.17-32.70 247.17-22.59L247.17-22.59L247.17-22.59Q247.17-12.48 239.87-5.79L239.87-5.79L239.87-5.79Q232.58 0.90 221.38 0.90L221.38 0.90L221.38 0.90Q210.18 0.90 202.78-5.76L202.78-5.76L202.78-5.76Q195.39-12.42 195.39-23.04L195.39-23.04L195.39-23.04Q195.39-29.89 198.59-35.20L198.59-35.20L198.59-35.20Q201.79-40.51 207.74-43.52L207.74-43.52L208.13-42.94L208.13-42.94Q203.97-40.19 202.14-35.01L202.14-35.01L202.14-35.01Q200.32-29.82 200.32-24L200.32-24L200.32-24Q200.32-13.18 206.21-7.10L206.21-7.10L206.21-7.10Q212.10-1.02 221.31-1.02L221.31-1.02L221.31-1.02Q230.53-1.02 236.38-7.14L236.38-7.14L236.38-7.14Q242.24-13.25 242.24-23.23L242.24-23.23L242.24-23.23Q242.24-31.87 237.60-37.82L237.60-37.82L237.60-37.82Q232.96-43.78 224.51-43.78L224.51-43.78L224.51-43.78Q220.74-43.78 217.66-42.43L217.66-42.43L217.66-42.43Q212.10-40.06 210.30-34.62L210.30-34.62L210.30-34.62Q209.79-33.02 209.79-31.87L209.79-31.87L209.79-31.87Q209.79-30.72 209.92-30.02L209.92-30.02ZM316.29 9.09L316.54 9.73L316.54 9.73Q311.42 11.33 307.33 10.30L307.33 10.30L307.33 10.30Q303.04 9.15 299.90 6.72L299.90 6.72L299.90 6.72Q296.90 4.29 293.76 0.90L293.76 0.90L260.03-36.48L260.03-4.48L260.03-4.48Q260.10-2.24 262.02-1.15L262.02-1.15L262.02-1.15Q262.91-0.64 263.94-0.64L263.94-0.64L265.15-0.64L265.15 0L251.97 0L251.97-0.64L253.18-0.64L253.18-0.64Q254.78-0.64 255.94-1.76L255.94-1.76L255.94-1.76Q257.09-2.88 257.09-4.54L257.09-4.54L257.09-39.68L257.09-39.68Q256.77-40.13 255.81-41.38L255.81-41.38L255.81-41.38Q254.85-42.62 254.21-43.39L254.21-43.39L254.21-43.39Q253.57-44.16 252.48-45.41L252.48-45.41L252.48-45.41Q251.39-46.66 250.46-47.42L250.46-47.42L250.46-47.42Q249.54-48.19 248.32-49.22L248.32-49.22L248.32-49.22Q246.40-50.69 244.22-51.33L244.22-51.33L244.22-51.33Q242.05-51.97 240.54-51.97L240.54-51.97L240.54-51.97Q239.04-51.97 237.31-51.46L237.31-51.46L237.06-52.10L237.06-52.10Q240.13-53.38 242.98-53.38L242.98-53.38L242.98-53.38Q245.82-53.38 247.87-52.70L247.87-52.70L247.87-52.70Q249.92-52.03 252.29-50.30L252.29-50.30L252.29-50.30Q254.66-48.58 256.16-47.10L256.16-47.10L256.16-47.10Q257.66-45.63 259.78-43.26L259.78-43.26L292.03-7.42L292.03-40.26L292.03-40.26Q291.97-41.92 290.82-43.04L290.82-43.04L290.82-43.04Q289.66-44.16 288.06-44.16L288.06-44.16L286.85-44.16L286.85-44.80L300.03-44.80L300.03-44.16L298.88-44.16L298.88-44.16Q297.28-44.16 296.13-43.04L296.13-43.04L296.13-43.04Q294.98-41.92 294.91-40.32L294.91-40.32L294.91-4.16L294.91-4.16Q295.55-3.46 296.74-2.05L296.74-2.05L296.74-2.05Q297.92-0.64 298.40-0.06L298.40-0.06L298.40-0.06Q298.88 0.51 299.84 1.60L299.84 1.60L299.84 1.60Q300.80 2.69 301.47 3.30L301.47 3.30L301.47 3.30Q302.14 3.90 303.14 4.83L303.14 4.83L303.14 4.83Q304.13 5.76 304.99 6.30L304.99 6.30L304.99 6.30Q305.86 6.85 306.94 7.55L306.94 7.55L306.94 7.55Q308.48 8.45 310.43 8.90L310.43 8.90L310.43 8.90Q312.38 9.34 313.63 9.34L313.63 9.34L313.63 9.34Q314.88 9.34 316.29 9.09L316.29 9.09ZM309.95-17.47L310.53-17.02L310.53-17.02Q307.20-12.67 307.20-7.62L307.20-7.62L307.20-7.62Q307.20-1.60 312.26 1.73L312.26 1.73L312.26 1.73Q315.20 3.71 318.94 3.71L318.94 3.71L318.94 3.71Q322.69 3.71 325.44 2.24L325.44 2.24L325.44 2.24Q330.62-0.45 331.26-6.78L331.26-6.78L331.26-6.78Q331.33-7.23 331.33-7.68L331.33-7.68L331.33-7.68Q331.33-10.05 330.02-12.80L330.02-12.80L330.02-12.80Q328.70-15.55 325.76-17.86L325.76-17.86L314.24-26.94L314.24-26.94Q310.46-29.89 310.46-34.56L310.46-34.56L310.46-34.56Q310.46-39.23 313.47-42.46L313.47-42.46L313.47-42.46Q316.48-45.70 321.60-45.70L321.60-45.70L321.60-45.70Q324.16-45.70 327.17-45.06L327.17-45.06L329.73-45.06L329.86-37.18L329.22-37.18L329.22-37.18Q329.15-40.26 327.01-42.02L327.01-42.02L327.01-42.02Q324.86-43.78 321.63-43.78L321.63-43.78L321.63-43.78Q318.40-43.78 316.22-41.63L316.22-41.63L316.22-41.63Q314.05-39.49 314.05-36.13L314.05-36.13L314.05-36.13Q314.05-32.77 316.86-30.53L316.86-30.53L328.70-21.18L328.70-21.18Q335.74-15.62 335.74-7.74L335.74-7.74L335.74-7.74Q335.74-1.86 331.07 2.37L331.07 2.37L331.07 2.37Q327.04 6.02 320.32 6.02L320.32 6.02L320.32 6.02Q316.22 6.02 313.02 4.48L313.02 4.48L313.02 4.48Q307.01 1.66 305.79-5.12L305.79-5.12L305.79-5.12Q305.60-6.14 305.60-7.71L305.60-7.71L305.60-7.71Q305.60-9.28 306.50-12L306.50-12L306.50-12Q307.39-14.72 309.95-17.47L309.95-17.47ZM360.58-45.82L360.58-45.82L360.58-45.82Q366.14-45.82 369.86-43.14L369.86-43.14L369.86-43.14Q374.85-39.55 374.85-31.94L374.85-31.94L374.85-31.94Q374.85-26.43 371.78-22.53L371.78-22.53L371.78-22.53Q368.45-18.37 362.50-18.37L362.50-18.37L362.50-18.37Q359.36-18.37 356.80-19.87L356.80-19.87L356.80-19.87Q354.24-21.38 353.79-25.02L353.79-25.02L354.37-25.22L354.37-25.22Q355.07-22.46 357.63-21.38L357.63-21.38L357.63-21.38Q359.36-20.61 360.70-20.61L360.70-20.61L360.70-20.61Q365.95-20.61 368.32-24.70L368.32-24.70L368.32-24.70Q370.05-27.71 370.05-31.87L370.05-31.87L370.05-31.87Q370.05-38.53 366.34-41.47L366.34-41.47L366.34-41.47Q363.52-43.78 359.17-43.78L359.17-43.78L359.17-43.78Q358.14-43.78 357.41-43.68L357.41-43.68L357.41-43.68Q356.67-43.58 350.98-42.62L350.98-42.62L350.98-4.67L350.98-4.67Q351.04-2.94 352.26-1.79L352.26-1.79L352.26-1.79Q353.47-0.64 355.07-0.64L355.07-0.64L355.90-0.64L355.90 0L341.89 0L341.89-0.64L342.72-0.64L342.72-0.64Q344.32-0.64 345.54-1.79L345.54-1.79L345.54-1.79Q346.75-2.94 346.82-4.67L346.82-4.67L346.82-39.30L346.82-39.30Q346.82-40.96 345.86-41.89L345.86-41.89L345.86-41.89Q344.90-42.82 343.36-42.82L343.36-42.82L343.36-42.82Q343.04-42.82 342.72-42.75L342.72-42.75L341.95-42.69L341.82-43.33L341.82-43.33Q345.15-43.65 350.75-44.58L350.75-44.58L350.75-44.58Q356.35-45.50 357.70-45.66L357.70-45.66L357.70-45.66Q359.04-45.82 360.58-45.82ZM418.50-0.64L418.50-0.64L419.01-0.64L419.01 0L404.61 0L404.61-0.64L405.18-0.64L405.18-0.64Q406.53-0.64 407.20-1.50L407.20-1.50L407.20-1.50Q407.87-2.37 407.87-3.14L407.87-3.14L407.87-3.14Q407.87-3.90 407.62-4.67L407.62-4.67L403.52-15.55L386.24-15.55L381.95-4.61L381.95-4.61Q381.70-3.84 381.70-3.10L381.70-3.10L381.70-3.10Q381.70-2.37 382.37-1.50L382.37-1.50L382.37-1.50Q383.04-0.64 384.38-0.64L384.38-0.64L384.96-0.64L384.96 0L372.10 0L372.10-0.64L372.67-0.64L372.67-0.64Q374.27-0.64 375.81-1.66L375.81-1.66L375.81-1.66Q377.34-2.69 378.30-4.67L378.30-4.67L392.77-39.10L392.77-39.10Q395.14-44.29 395.14-45.70L395.14-45.70L395.71-45.70L412.86-4.67L412.86-4.67Q413.76-2.69 415.30-1.66L415.30-1.66L415.30-1.66Q416.83-0.64 418.50-0.64ZM395.07-38.02L387.01-17.47L402.75-17.47L395.07-38.02ZM478.98 10.24L478.98 10.88L478.98 10.88Q476.29 11.58 474.21 11.58L474.21 11.58L474.21 11.58Q472.13 11.58 470.53 11.33L470.53 11.33L470.53 11.33Q468.93 11.07 467.10 10.34L467.10 10.34L467.10 10.34Q465.28 9.60 463.68 8.64L463.68 8.64L463.68 8.64Q462.08 7.68 460.48 6.27L460.48 6.27L460.48 6.27Q457.54 3.90 455.14 1.15L455.14 1.15L455.14 1.15Q452.74-1.60 445.89-9.18L445.89-9.18L445.89-9.18Q439.04-16.77 436.80-19.26L436.80-19.26L436.80-19.26Q434.56-21.76 433.34-21.89L433.34-21.89L433.34-22.53L433.34-22.53Q437.06-22.53 438.30-22.69L438.30-22.69L438.30-22.69Q439.55-22.85 440.96-23.26L440.96-23.26L440.96-23.26Q442.37-23.68 443.33-24.38L443.33-24.38L443.33-24.38Q447.10-26.82 447.10-32.45L447.10-32.45L447.10-32.45Q447.10-37.12 445.02-39.94L445.02-39.94L445.02-39.94Q442.94-42.75 439.17-42.82L439.17-42.82L431.23-42.82L431.23-4.67L431.23-4.67Q431.23-3.07 432.42-1.86L432.42-1.86L432.42-1.86Q433.60-0.64 435.33-0.64L435.33-0.64L436.10-0.64L436.16 0L422.14 0L422.14-0.64L422.98-0.64L422.98-0.64Q424.58-0.64 425.79-1.79L425.79-1.79L425.79-1.79Q427.01-2.94 427.07-4.61L427.07-4.61L427.07-40.13L427.07-40.13Q427.01-41.79 425.82-42.98L425.82-42.98L425.82-42.98Q424.64-44.16 422.98-44.16L422.98-44.16L422.14-44.16L422.14-44.80L439.42-44.80L439.42-44.80Q445.06-44.80 448.48-41.63L448.48-41.63L448.48-41.63Q451.90-38.46 451.90-33.25L451.90-33.25L451.90-33.25Q451.90-28.03 448.77-24.29L448.77-24.29L448.77-24.29Q445.63-20.54 441.09-20.54L441.09-20.54L441.09-20.54Q441.09-20.54 441.02-20.54L441.02-20.54L441.02-20.54Q443.20-18.24 445.95-15.17L445.95-15.17L445.95-15.17Q457.02-2.94 460.16 0.19L460.16 0.19L460.16 0.19Q463.30 3.33 465.70 5.34L465.70 5.34L465.70 5.34Q468.10 7.36 469.95 8.32L469.95 8.32L469.95 8.32Q473.73 10.37 477.44 10.37L477.44 10.37L477.44 10.37Q478.21 10.37 478.98 10.24L478.98 10.24ZM500.29-0.64L500.29-0.64L501.18-0.64L501.18 0L485.57 0L485.57-0.64L486.34-0.64L486.34-0.64Q487.74-0.64 488.51-1.92L488.51-1.92L488.51-1.92Q488.96-2.62 488.96-3.26L488.96-3.26L488.96-3.26Q488.96-3.90 488.64-4.54L488.64-4.54L478.78-20.10L466.43-1.98L466.43-1.98Q461.95 4.54 457.41 7.42L457.41 7.42L457.41 7.42Q453.76 9.66 449.41 9.66L449.41 9.66L449.41 9.66Q448.26 9.66 447.10 9.54L447.10 9.54L447.10 8.90L447.10 8.90Q451.58 8.70 455.36 5.38L455.36 5.38L455.36 5.38Q458.56 2.50 461.44-1.54L461.44-1.54L461.44-1.54Q462.02-2.24 463.23-3.97L463.23-3.97L476.80-23.17L465.92-40.38L465.92-40.38Q464.38-42.62 462.02-43.65L462.02-43.65L462.02-43.65Q460.74-44.16 459.46-44.16L459.46-44.16L458.56-44.16L458.56-44.80L474.05-44.80L474.05-44.16L473.28-44.16L473.28-44.16Q472.45-44.16 471.68-43.52L471.68-43.52L471.68-43.52Q470.08-42.18 470.98-40.26L470.98-40.26L479.62-26.69L491.90-44.16L491.90-44.16Q496.13-50.11 499.90-52.48L499.90-52.48L499.90-52.48Q503.68-54.85 508.10-54.85L508.10-54.85L508.10-54.85Q508.93-54.85 509.76-54.78L509.76-54.78L509.76-54.14L509.76-54.14Q506.69-54.08 504.38-52.54L504.38-52.54L504.38-52.54Q503.17-51.65 502.27-51.01L502.27-51.01L502.27-51.01Q501.38-50.37 500.19-48.96L500.19-48.96L500.19-48.96Q499.01-47.55 498.46-46.91L498.46-46.91L498.46-46.91Q497.92-46.27 496.74-44.64L496.74-44.64L496.74-44.64Q495.55-43.01 495.30-42.69L495.30-42.69L481.47-23.74L493.82-4.35L493.82-4.35Q494.98-2.75 496.67-1.70L496.67-1.70L496.67-1.70Q498.37-0.64 500.29-0.64Z" fill="url(#editing-shiny-gradient)"></path></g></g><g filter="url(#editing-shiny2)"><g transform="translate(-0.35970449447631836, 108.21500015258789)"><path d="M-5.70-35.20L-6.40-35.46L-6.40-35.46Q-4.54-40.90-0.19-42.94L-0.19-42.94L-0.19-42.94Q4.16-44.99 15.23-44.99L15.23-44.99L15.23-44.99Q17.54-44.99 26.88-44.80L26.88-44.80L26.88-44.80Q33.66-44.61 38.85-41.86L38.85-41.86L38.85-41.86Q44.03-39.10 46.94-34.08L46.94-34.08L46.94-34.08Q49.86-29.06 49.86-22.40L49.86-22.40L49.86-22.40Q49.86-12.35 43.49-6.18L43.49-6.18L43.49-6.18Q37.12 0 26.88 0L26.88 0L5.18 0L5.25-0.64L6.02-0.64L6.02-0.64Q7.62-0.64 8.77-1.70L8.77-1.70L8.77-1.70Q9.92-2.75 10.11-4.29L10.11-4.29L10.11-42.88L10.11-42.88Q2.11-42.69-1.22-40.38L-1.22-40.38L-1.22-40.38Q-2.94-39.17-3.84-38.05L-3.84-38.05L-3.84-38.05Q-4.74-36.93-5.70-35.20L-5.70-35.20ZM26.88-42.88L14.27-42.88L14.27-1.92L26.88-1.92L26.88-1.92Q35.01-1.92 40.03-7.55L40.03-7.55L40.03-7.55Q45.06-13.18 45.06-22.40L45.06-22.40L45.06-22.40Q45.06-28.48 42.78-33.12L42.78-33.12L42.78-33.12Q40.51-37.76 36.38-40.32L36.38-40.32L36.38-40.32Q32.26-42.88 26.88-42.88L26.88-42.88ZM113.02 10.24L113.02 10.88L113.02 10.88Q110.34 11.58 108.26 11.58L108.26 11.58L108.26 11.58Q106.18 11.58 104.58 11.33L104.58 11.33L104.58 11.33Q102.98 11.07 101.15 10.34L101.15 10.34L101.15 10.34Q99.33 9.60 97.73 8.64L97.73 8.64L97.73 8.64Q96.13 7.68 94.53 6.27L94.53 6.27L94.53 6.27Q91.58 3.90 89.18 1.15L89.18 1.15L89.18 1.15Q86.78-1.60 79.94-9.18L79.94-9.18L79.94-9.18Q73.09-16.77 70.85-19.26L70.85-19.26L70.85-19.26Q68.61-21.76 67.39-21.89L67.39-21.89L67.39-22.53L67.39-22.53Q71.10-22.53 72.35-22.69L72.35-22.69L72.35-22.69Q73.60-22.85 75.01-23.26L75.01-23.26L75.01-23.26Q76.42-23.68 77.38-24.38L77.38-24.38L77.38-24.38Q81.15-26.82 81.15-32.45L81.15-32.45L81.15-32.45Q81.15-37.12 79.07-39.94L79.07-39.94L79.07-39.94Q76.99-42.75 73.22-42.82L73.22-42.82L65.28-42.82L65.28-4.67L65.28-4.67Q65.28-3.07 66.46-1.86L66.46-1.86L66.46-1.86Q67.65-0.64 69.38-0.64L69.38-0.64L70.14-0.64L70.21 0L56.19 0L56.19-0.64L57.02-0.64L57.02-0.64Q58.62-0.64 59.84-1.79L59.84-1.79L59.84-1.79Q61.06-2.94 61.12-4.61L61.12-4.61L61.12-40.13L61.12-40.13Q61.06-41.79 59.87-42.98L59.87-42.98L59.87-42.98Q58.69-44.16 57.02-44.16L57.02-44.16L56.19-44.16L56.19-44.80L73.47-44.80L73.47-44.80Q79.10-44.80 82.53-41.63L82.53-41.63L82.53-41.63Q85.95-38.46 85.95-33.25L85.95-33.25L85.95-33.25Q85.95-28.03 82.82-24.29L82.82-24.29L82.82-24.29Q79.68-20.54 75.14-20.54L75.14-20.54L75.14-20.54Q75.14-20.54 75.07-20.54L75.07-20.54L75.07-20.54Q77.25-18.24 80-15.17L80-15.17L80-15.17Q91.07-2.94 94.21 0.19L94.21 0.19L94.21 0.19Q97.34 3.33 99.74 5.34L99.74 5.34L99.74 5.34Q102.14 7.36 104 8.32L104 8.32L104 8.32Q107.78 10.37 111.49 10.37L111.49 10.37L111.49 10.37Q112.26 10.37 113.02 10.24L113.02 10.24ZM139.84-0.64L139.84-0.64L140.35-0.64L140.35 0L125.95 0L125.95-0.64L126.53-0.64L126.53-0.64Q127.87-0.64 128.54-1.50L128.54-1.50L128.54-1.50Q129.22-2.37 129.22-3.14L129.22-3.14L129.22-3.14Q129.22-3.90 128.96-4.67L128.96-4.67L124.86-15.55L107.58-15.55L103.30-4.61L103.30-4.61Q103.04-3.84 103.04-3.10L103.04-3.10L103.04-3.10Q103.04-2.37 103.71-1.50L103.71-1.50L103.71-1.50Q104.38-0.64 105.73-0.64L105.73-0.64L106.30-0.64L106.30 0L93.44 0L93.44-0.64L94.02-0.64L94.02-0.64Q95.62-0.64 97.15-1.66L97.15-1.66L97.15-1.66Q98.69-2.69 99.65-4.67L99.65-4.67L114.11-39.10L114.11-39.10Q116.48-44.29 116.48-45.70L116.48-45.70L117.06-45.70L134.21-4.67L134.21-4.67Q135.10-2.69 136.64-1.66L136.64-1.66L136.64-1.66Q138.18-0.64 139.84-0.64ZM116.42-38.02L108.35-17.47L124.10-17.47L116.42-38.02ZM199.42 11.14L199.42 11.14L199.42 11.14Q191.30 11.14 186.11 5.95L186.11 5.95L186.11 5.95Q182.27 2.11 181.06-3.71L181.06-3.71L181.06-3.71Q174.98 0.90 166.14 0.90L166.14 0.90L166.14 0.90Q159.17 0.90 153.44-2.14L153.44-2.14L153.44-2.14Q147.71-5.18 144.48-10.50L144.48-10.50L144.48-10.50Q141.25-15.81 141.25-22.46L141.25-22.46L141.25-22.46Q141.25-29.12 144.48-34.46L144.48-34.46L144.48-34.46Q147.71-39.81 153.41-42.75L153.41-42.75L153.41-42.75Q159.10-45.70 166.14-45.70L166.14-45.70L166.14-45.70Q174.98-45.70 181.70-41.34L181.70-41.34L182.98-32.32L182.40-32.32L182.40-32.32Q180.48-39.74 173.70-42.43L173.70-42.43L173.70-42.43Q170.37-43.78 166.14-43.78L166.14-43.78L166.14-43.78Q157.50-43.78 151.78-37.76L151.78-37.76L151.78-37.76Q146.05-31.74 146.05-22.50L146.05-22.50L146.05-22.50Q146.05-13.25 151.81-7.17L151.81-7.17L151.81-7.17Q157.57-1.09 166.14-1.02L166.14-1.02L166.14-1.02Q170.30-1.02 174.08-2.50L174.08-2.50L174.08-2.50Q177.86-3.97 180.54-6.59L180.54-6.59L180.54-17.92L180.54-17.92Q180.54-19.33 179.71-20.06L179.71-20.06L179.71-20.06Q178.88-20.80 177.34-20.80L177.34-20.80L176.32-20.80L176.32-21.44L188.86-21.44L188.86-20.80L187.90-20.80L187.90-20.80Q186.30-20.80 185.47-20.06L185.47-20.06L185.47-20.06Q184.64-19.33 184.70-17.92L184.70-17.92L184.70-8.06L184.70-8.06Q185.09 2.05 191.30 6.40L191.30 6.40L191.30 6.40Q195.65 9.47 202.56 9.47L202.56 9.47L202.56 9.47Q205.44 9.47 208.83 8.90L208.83 8.90L208.90 9.54L208.90 9.54Q203.78 11.14 199.42 11.14ZM209.92-30.02L209.28-29.89L209.28-29.89Q209.02-30.72 209.02-31.33L209.02-31.33L209.02-31.33Q209.02-31.94 209.09-32.70L209.09-32.70L209.09-32.70Q209.15-33.47 209.38-34.82L209.38-34.82L209.38-34.82Q209.60-36.16 210.24-37.47L210.24-37.47L210.24-37.47Q210.88-38.78 211.71-40L211.71-40L211.71-40Q212.54-41.22 213.86-42.24L213.86-42.24L213.86-42.24Q215.17-43.26 216.77-44.03L216.77-44.03L216.77-44.03Q220.16-45.70 225.02-45.70L225.02-45.70L225.02-45.70Q234.82-45.70 240.99-39.20L240.99-39.20L240.99-39.20Q247.17-32.70 247.17-22.59L247.17-22.59L247.17-22.59Q247.17-12.48 239.87-5.79L239.87-5.79L239.87-5.79Q232.58 0.90 221.38 0.90L221.38 0.90L221.38 0.90Q210.18 0.90 202.78-5.76L202.78-5.76L202.78-5.76Q195.39-12.42 195.39-23.04L195.39-23.04L195.39-23.04Q195.39-29.89 198.59-35.20L198.59-35.20L198.59-35.20Q201.79-40.51 207.74-43.52L207.74-43.52L208.13-42.94L208.13-42.94Q203.97-40.19 202.14-35.01L202.14-35.01L202.14-35.01Q200.32-29.82 200.32-24L200.32-24L200.32-24Q200.32-13.18 206.21-7.10L206.21-7.10L206.21-7.10Q212.10-1.02 221.31-1.02L221.31-1.02L221.31-1.02Q230.53-1.02 236.38-7.14L236.38-7.14L236.38-7.14Q242.24-13.25 242.24-23.23L242.24-23.23L242.24-23.23Q242.24-31.87 237.60-37.82L237.60-37.82L237.60-37.82Q232.96-43.78 224.51-43.78L224.51-43.78L224.51-43.78Q220.74-43.78 217.66-42.43L217.66-42.43L217.66-42.43Q212.10-40.06 210.30-34.62L210.30-34.62L210.30-34.62Q209.79-33.02 209.79-31.87L209.79-31.87L209.79-31.87Q209.79-30.72 209.92-30.02L209.92-30.02ZM316.29 9.09L316.54 9.73L316.54 9.73Q311.42 11.33 307.33 10.30L307.33 10.30L307.33 10.30Q303.04 9.15 299.90 6.72L299.90 6.72L299.90 6.72Q296.90 4.29 293.76 0.90L293.76 0.90L260.03-36.48L260.03-4.48L260.03-4.48Q260.10-2.24 262.02-1.15L262.02-1.15L262.02-1.15Q262.91-0.64 263.94-0.64L263.94-0.64L265.15-0.64L265.15 0L251.97 0L251.97-0.64L253.18-0.64L253.18-0.64Q254.78-0.64 255.94-1.76L255.94-1.76L255.94-1.76Q257.09-2.88 257.09-4.54L257.09-4.54L257.09-39.68L257.09-39.68Q256.77-40.13 255.81-41.38L255.81-41.38L255.81-41.38Q254.85-42.62 254.21-43.39L254.21-43.39L254.21-43.39Q253.57-44.16 252.48-45.41L252.48-45.41L252.48-45.41Q251.39-46.66 250.46-47.42L250.46-47.42L250.46-47.42Q249.54-48.19 248.32-49.22L248.32-49.22L248.32-49.22Q246.40-50.69 244.22-51.33L244.22-51.33L244.22-51.33Q242.05-51.97 240.54-51.97L240.54-51.97L240.54-51.97Q239.04-51.97 237.31-51.46L237.31-51.46L237.06-52.10L237.06-52.10Q240.13-53.38 242.98-53.38L242.98-53.38L242.98-53.38Q245.82-53.38 247.87-52.70L247.87-52.70L247.87-52.70Q249.92-52.03 252.29-50.30L252.29-50.30L252.29-50.30Q254.66-48.58 256.16-47.10L256.16-47.10L256.16-47.10Q257.66-45.63 259.78-43.26L259.78-43.26L292.03-7.42L292.03-40.26L292.03-40.26Q291.97-41.92 290.82-43.04L290.82-43.04L290.82-43.04Q289.66-44.16 288.06-44.16L288.06-44.16L286.85-44.16L286.85-44.80L300.03-44.80L300.03-44.16L298.88-44.16L298.88-44.16Q297.28-44.16 296.13-43.04L296.13-43.04L296.13-43.04Q294.98-41.92 294.91-40.32L294.91-40.32L294.91-4.16L294.91-4.16Q295.55-3.46 296.74-2.05L296.74-2.05L296.74-2.05Q297.92-0.64 298.40-0.06L298.40-0.06L298.40-0.06Q298.88 0.51 299.84 1.60L299.84 1.60L299.84 1.60Q300.80 2.69 301.47 3.30L301.47 3.30L301.47 3.30Q302.14 3.90 303.14 4.83L303.14 4.83L303.14 4.83Q304.13 5.76 304.99 6.30L304.99 6.30L304.99 6.30Q305.86 6.85 306.94 7.55L306.94 7.55L306.94 7.55Q308.48 8.45 310.43 8.90L310.43 8.90L310.43 8.90Q312.38 9.34 313.63 9.34L313.63 9.34L313.63 9.34Q314.88 9.34 316.29 9.09L316.29 9.09ZM309.95-17.47L310.53-17.02L310.53-17.02Q307.20-12.67 307.20-7.62L307.20-7.62L307.20-7.62Q307.20-1.60 312.26 1.73L312.26 1.73L312.26 1.73Q315.20 3.71 318.94 3.71L318.94 3.71L318.94 3.71Q322.69 3.71 325.44 2.24L325.44 2.24L325.44 2.24Q330.62-0.45 331.26-6.78L331.26-6.78L331.26-6.78Q331.33-7.23 331.33-7.68L331.33-7.68L331.33-7.68Q331.33-10.05 330.02-12.80L330.02-12.80L330.02-12.80Q328.70-15.55 325.76-17.86L325.76-17.86L314.24-26.94L314.24-26.94Q310.46-29.89 310.46-34.56L310.46-34.56L310.46-34.56Q310.46-39.23 313.47-42.46L313.47-42.46L313.47-42.46Q316.48-45.70 321.60-45.70L321.60-45.70L321.60-45.70Q324.16-45.70 327.17-45.06L327.17-45.06L329.73-45.06L329.86-37.18L329.22-37.18L329.22-37.18Q329.15-40.26 327.01-42.02L327.01-42.02L327.01-42.02Q324.86-43.78 321.63-43.78L321.63-43.78L321.63-43.78Q318.40-43.78 316.22-41.63L316.22-41.63L316.22-41.63Q314.05-39.49 314.05-36.13L314.05-36.13L314.05-36.13Q314.05-32.77 316.86-30.53L316.86-30.53L328.70-21.18L328.70-21.18Q335.74-15.62 335.74-7.74L335.74-7.74L335.74-7.74Q335.74-1.86 331.07 2.37L331.07 2.37L331.07 2.37Q327.04 6.02 320.32 6.02L320.32 6.02L320.32 6.02Q316.22 6.02 313.02 4.48L313.02 4.48L313.02 4.48Q307.01 1.66 305.79-5.12L305.79-5.12L305.79-5.12Q305.60-6.14 305.60-7.71L305.60-7.71L305.60-7.71Q305.60-9.28 306.50-12L306.50-12L306.50-12Q307.39-14.72 309.95-17.47L309.95-17.47ZM360.58-45.82L360.58-45.82L360.58-45.82Q366.14-45.82 369.86-43.14L369.86-43.14L369.86-43.14Q374.85-39.55 374.85-31.94L374.85-31.94L374.85-31.94Q374.85-26.43 371.78-22.53L371.78-22.53L371.78-22.53Q368.45-18.37 362.50-18.37L362.50-18.37L362.50-18.37Q359.36-18.37 356.80-19.87L356.80-19.87L356.80-19.87Q354.24-21.38 353.79-25.02L353.79-25.02L354.37-25.22L354.37-25.22Q355.07-22.46 357.63-21.38L357.63-21.38L357.63-21.38Q359.36-20.61 360.70-20.61L360.70-20.61L360.70-20.61Q365.95-20.61 368.32-24.70L368.32-24.70L368.32-24.70Q370.05-27.71 370.05-31.87L370.05-31.87L370.05-31.87Q370.05-38.53 366.34-41.47L366.34-41.47L366.34-41.47Q363.52-43.78 359.17-43.78L359.17-43.78L359.17-43.78Q358.14-43.78 357.41-43.68L357.41-43.68L357.41-43.68Q356.67-43.58 350.98-42.62L350.98-42.62L350.98-4.67L350.98-4.67Q351.04-2.94 352.26-1.79L352.26-1.79L352.26-1.79Q353.47-0.64 355.07-0.64L355.07-0.64L355.90-0.64L355.90 0L341.89 0L341.89-0.64L342.72-0.64L342.72-0.64Q344.32-0.64 345.54-1.79L345.54-1.79L345.54-1.79Q346.75-2.94 346.82-4.67L346.82-4.67L346.82-39.30L346.82-39.30Q346.82-40.96 345.86-41.89L345.86-41.89L345.86-41.89Q344.90-42.82 343.36-42.82L343.36-42.82L343.36-42.82Q343.04-42.82 342.72-42.75L342.72-42.75L341.95-42.69L341.82-43.33L341.82-43.33Q345.15-43.65 350.75-44.58L350.75-44.58L350.75-44.58Q356.35-45.50 357.70-45.66L357.70-45.66L357.70-45.66Q359.04-45.82 360.58-45.82ZM418.50-0.64L418.50-0.64L419.01-0.64L419.01 0L404.61 0L404.61-0.64L405.18-0.64L405.18-0.64Q406.53-0.64 407.20-1.50L407.20-1.50L407.20-1.50Q407.87-2.37 407.87-3.14L407.87-3.14L407.87-3.14Q407.87-3.90 407.62-4.67L407.62-4.67L403.52-15.55L386.24-15.55L381.95-4.61L381.95-4.61Q381.70-3.84 381.70-3.10L381.70-3.10L381.70-3.10Q381.70-2.37 382.37-1.50L382.37-1.50L382.37-1.50Q383.04-0.64 384.38-0.64L384.38-0.64L384.96-0.64L384.96 0L372.10 0L372.10-0.64L372.67-0.64L372.67-0.64Q374.27-0.64 375.81-1.66L375.81-1.66L375.81-1.66Q377.34-2.69 378.30-4.67L378.30-4.67L392.77-39.10L392.77-39.10Q395.14-44.29 395.14-45.70L395.14-45.70L395.71-45.70L412.86-4.67L412.86-4.67Q413.76-2.69 415.30-1.66L415.30-1.66L415.30-1.66Q416.83-0.64 418.50-0.64ZM395.07-38.02L387.01-17.47L402.75-17.47L395.07-38.02ZM478.98 10.24L478.98 10.88L478.98 10.88Q476.29 11.58 474.21 11.58L474.21 11.58L474.21 11.58Q472.13 11.58 470.53 11.33L470.53 11.33L470.53 11.33Q468.93 11.07 467.10 10.34L467.10 10.34L467.10 10.34Q465.28 9.60 463.68 8.64L463.68 8.64L463.68 8.64Q462.08 7.68 460.48 6.27L460.48 6.27L460.48 6.27Q457.54 3.90 455.14 1.15L455.14 1.15L455.14 1.15Q452.74-1.60 445.89-9.18L445.89-9.18L445.89-9.18Q439.04-16.77 436.80-19.26L436.80-19.26L436.80-19.26Q434.56-21.76 433.34-21.89L433.34-21.89L433.34-22.53L433.34-22.53Q437.06-22.53 438.30-22.69L438.30-22.69L438.30-22.69Q439.55-22.85 440.96-23.26L440.96-23.26L440.96-23.26Q442.37-23.68 443.33-24.38L443.33-24.38L443.33-24.38Q447.10-26.82 447.10-32.45L447.10-32.45L447.10-32.45Q447.10-37.12 445.02-39.94L445.02-39.94L445.02-39.94Q442.94-42.75 439.17-42.82L439.17-42.82L431.23-42.82L431.23-4.67L431.23-4.67Q431.23-3.07 432.42-1.86L432.42-1.86L432.42-1.86Q433.60-0.64 435.33-0.64L435.33-0.64L436.10-0.64L436.16 0L422.14 0L422.14-0.64L422.98-0.64L422.98-0.64Q424.58-0.64 425.79-1.79L425.79-1.79L425.79-1.79Q427.01-2.94 427.07-4.61L427.07-4.61L427.07-40.13L427.07-40.13Q427.01-41.79 425.82-42.98L425.82-42.98L425.82-42.98Q424.64-44.16 422.98-44.16L422.98-44.16L422.14-44.16L422.14-44.80L439.42-44.80L439.42-44.80Q445.06-44.80 448.48-41.63L448.48-41.63L448.48-41.63Q451.90-38.46 451.90-33.25L451.90-33.25L451.90-33.25Q451.90-28.03 448.77-24.29L448.77-24.29L448.77-24.29Q445.63-20.54 441.09-20.54L441.09-20.54L441.09-20.54Q441.09-20.54 441.02-20.54L441.02-20.54L441.02-20.54Q443.20-18.24 445.95-15.17L445.95-15.17L445.95-15.17Q457.02-2.94 460.16 0.19L460.16 0.19L460.16 0.19Q463.30 3.33 465.70 5.34L465.70 5.34L465.70 5.34Q468.10 7.36 469.95 8.32L469.95 8.32L469.95 8.32Q473.73 10.37 477.44 10.37L477.44 10.37L477.44 10.37Q478.21 10.37 478.98 10.24L478.98 10.24ZM500.29-0.64L500.29-0.64L501.18-0.64L501.18 0L485.57 0L485.57-0.64L486.34-0.64L486.34-0.64Q487.74-0.64 488.51-1.92L488.51-1.92L488.51-1.92Q488.96-2.62 488.96-3.26L488.96-3.26L488.96-3.26Q488.96-3.90 488.64-4.54L488.64-4.54L478.78-20.10L466.43-1.98L466.43-1.98Q461.95 4.54 457.41 7.42L457.41 7.42L457.41 7.42Q453.76 9.66 449.41 9.66L449.41 9.66L449.41 9.66Q448.26 9.66 447.10 9.54L447.10 9.54L447.10 8.90L447.10 8.90Q451.58 8.70 455.36 5.38L455.36 5.38L455.36 5.38Q458.56 2.50 461.44-1.54L461.44-1.54L461.44-1.54Q462.02-2.24 463.23-3.97L463.23-3.97L476.80-23.17L465.92-40.38L465.92-40.38Q464.38-42.62 462.02-43.65L462.02-43.65L462.02-43.65Q460.74-44.16 459.46-44.16L459.46-44.16L458.56-44.16L458.56-44.80L474.05-44.80L474.05-44.16L473.28-44.16L473.28-44.16Q472.45-44.16 471.68-43.52L471.68-43.52L471.68-43.52Q470.08-42.18 470.98-40.26L470.98-40.26L479.62-26.69L491.90-44.16L491.90-44.16Q496.13-50.11 499.90-52.48L499.90-52.48L499.90-52.48Q503.68-54.85 508.10-54.85L508.10-54.85L508.10-54.85Q508.93-54.85 509.76-54.78L509.76-54.78L509.76-54.14L509.76-54.14Q506.69-54.08 504.38-52.54L504.38-52.54L504.38-52.54Q503.17-51.65 502.27-51.01L502.27-51.01L502.27-51.01Q501.38-50.37 500.19-48.96L500.19-48.96L500.19-48.96Q499.01-47.55 498.46-46.91L498.46-46.91L498.46-46.91Q497.92-46.27 496.74-44.64L496.74-44.64L496.74-44.64Q495.55-43.01 495.30-42.69L495.30-42.69L481.47-23.74L493.82-4.35L493.82-4.35Q494.98-2.75 496.67-1.70L496.67-1.70L496.67-1.70Q498.37-0.64 500.29-0.64Z" fill="url(#editing-shiny-gradient2)"></path></g></g><style>text {
  font-size: 64px;
  font-family: Arial Black;
  dominant-baseline: central;
  text-anchor: middle;
}</style></svg>